<svg xmlns="http://www.w3.org/2000/svg" class="main-logoSVG" version="1.1" width="400px" height="144.317px" 
viewBox="0 0 400 144.317" enable-background="new 0 0 400 144.317" xml:space="preserve">

<g>
	<path d="M81.509,23.034H94.61c7.9,0,13.101,4.2,13.101,11.101v0.1c0,7.55-6.3,11.451-13.751,11.451h-8.5v12.351h-3.95V23.034z
		 M94.11,42.084c5.8,0,9.601-3.1,9.601-7.7v-0.1c0-5-3.75-7.601-9.401-7.601h-8.851v15.401H94.11z"/>
	<path d="M114.609,21.533h3.85v36.502h-3.85V21.533z"/>
	<path d="M127.009,48.235V32.184h3.85v15.101c0,4.8,2.6,7.8,7.15,7.8c4.4,0,7.75-3.25,7.75-8.101V32.184h3.8v25.852h-3.8v-4.5
		c-1.75,2.8-4.4,5.05-8.851,5.05C130.659,58.585,127.009,54.385,127.009,48.235z"/>
	<path d="M158.208,32.184h3.85v6.75c1.9-4.3,5.65-7.4,10.551-7.201v4.15h-0.3c-5.65,0-10.251,4.05-10.251,11.851v10.301h-3.85
		V32.184z"/>
	<path d="M175.259,50.535v-0.1c0-5.55,4.5-8.45,11.05-8.45c3.301,0,5.601,0.45,7.901,1.1v-0.8c0-4.6-2.801-7-7.651-7
		c-3.05,0-5.45,0.75-7.85,1.85l-1.15-3.15c2.85-1.3,5.601-2.2,9.4-2.2c3.65,0,6.5,1,8.351,2.85c1.8,1.8,2.7,4.3,2.7,7.601v15.801
		h-3.8v-3.85c-1.801,2.3-4.751,4.4-9.301,4.4C180.059,58.585,175.259,55.835,175.259,50.535z M194.26,48.535v-2.4
		c-1.9-0.55-4.4-1.1-7.551-1.1c-4.8,0-7.551,2.1-7.551,5.201v0.1c0,3.25,3.001,5.15,6.501,5.15
		C190.409,55.485,194.26,52.635,194.26,48.535z"/>
	<path d="M206.509,21.533h3.851v36.502h-3.851V21.533z"/>
	<path d="M217.658,52.936l2.45-2.9c3.65,3.3,7.15,4.95,12,4.95c4.701,0,7.801-2.5,7.801-5.95v-0.1c0-3.25-1.75-5.1-9.101-6.65
		c-8.051-1.75-11.751-4.35-11.751-10.101v-0.1c0-5.5,4.851-9.55,11.501-9.55c5.101,0,8.751,1.45,12.301,4.3l-2.3,3.05
		c-3.25-2.65-6.501-3.8-10.101-3.8c-4.551,0-7.451,2.5-7.451,5.65v0.1c0,3.3,1.801,5.15,9.501,6.8c7.801,1.7,11.4,4.55,11.4,9.901
		v0.1c0,6-5,9.9-11.95,9.9C226.408,58.536,221.858,56.686,217.658,52.936z"/>
	<path d="M251.408,22.284h4.4v4.25h-4.4V22.284z M251.658,32.184h3.851v25.852h-3.851V32.184z"/>
	<path d="M264.156,62.536l1.75-3c2.95,2.15,6.251,3.3,9.951,3.3c5.7,0,9.4-3.15,9.4-9.201v-3.05c-2.25,3-5.4,5.451-10.15,5.451
		c-6.2,0-12.151-4.65-12.151-12.101v-0.1c0-7.551,6.001-12.201,12.151-12.201c4.85,0,8,2.4,10.101,5.2v-4.65h3.85v21.351
		c0,4-1.199,7.051-3.3,9.151c-2.3,2.3-5.75,3.45-9.851,3.45C271.607,66.136,267.606,64.936,264.156,62.536z M285.357,43.885v-0.1
		c0-5.3-4.6-8.75-9.5-8.75s-8.951,3.4-8.951,8.701v0.1c0,5.2,4.15,8.8,8.951,8.8C280.758,52.635,285.357,49.085,285.357,43.885z"/>
	<path d="M297.655,21.533h3.851v15.151c1.7-2.8,4.4-5.05,8.851-5.05c6.25,0,9.9,4.2,9.9,10.351v16.051h-3.85V42.935
		c0-4.8-2.601-7.8-7.15-7.8c-4.45,0-7.751,3.25-7.751,8.101v14.801h-3.851V21.533z"/>
	<path d="M329.807,51.185V35.584h-3.601v-3.4h3.601v-7.8h3.851v7.8h8.2v3.4h-8.2v15.101c0,3.15,1.75,4.3,4.35,4.3
		c1.301,0,2.4-0.25,3.751-0.9v3.3c-1.351,0.7-2.801,1.1-4.65,1.1C332.957,58.486,329.807,56.436,329.807,51.185z"/>
	<path d="M81.509,83.034h3.95v31.351h19.701v3.65H81.509V83.034z"/>
	<path d="M109.858,110.535v-0.1c0-5.551,4.5-8.451,11.051-8.451c3.3,0,5.6,0.45,7.9,1.101v-0.8c0-4.601-2.8-7.001-7.65-7.001
		c-3.05,0-5.45,0.75-7.851,1.85l-1.15-3.15c2.85-1.3,5.6-2.2,9.4-2.2c3.65,0,6.5,1,8.351,2.85c1.8,1.8,2.7,4.3,2.7,7.6v15.801h-3.8
		v-3.85c-1.8,2.301-4.75,4.4-9.301,4.4C114.659,118.586,109.858,115.836,109.858,110.535z M128.859,108.535v-2.4
		c-1.9-0.551-4.4-1.1-7.55-1.1c-4.8,0-7.55,2.1-7.55,5.199v0.102c0,3.25,3,5.15,6.5,5.15
		C125.009,115.486,128.859,112.635,128.859,108.535z"/>
	<path d="M140.758,92.184h3.85v4.5c1.7-2.8,4.4-5.05,8.851-5.05c6.25,0,9.901,4.2,9.901,10.35v16.051h-3.851v-15.101
		c0-4.8-2.6-7.8-7.15-7.8c-4.45,0-7.75,3.25-7.75,8.1v14.801h-3.85V92.184z"/>
	<path d="M170.059,105.186v-0.102c0-8.45,6.15-13.45,12.351-13.45c4.801,0,7.9,2.6,9.9,5.5V81.533h3.851v36.502h-3.851v-5.199
		c-2.1,3.1-5.15,5.75-9.9,5.75C176.209,118.586,170.059,113.686,170.059,105.186z M192.46,105.135v-0.1
		c0-5.951-4.551-9.951-9.351-9.951c-5,0-9.101,3.7-9.101,9.951v0.1c0,6.1,4.2,10,9.101,10
		C187.909,115.135,192.46,111.086,192.46,105.135z"/>
	<path d="M202.607,114.736l1.95-2.752c2.8,2.102,5.9,3.301,8.95,3.301c3.101,0,5.351-1.6,5.351-4.1v-0.1
		c0-2.602-3.051-3.602-6.45-4.551c-4.051-1.15-8.551-2.551-8.551-7.301v-0.1c0-4.45,3.7-7.4,8.801-7.4c3.149,0,6.65,1.1,9.3,2.85
		l-1.75,2.9c-2.4-1.55-5.15-2.5-7.65-2.5c-3.05,0-5,1.6-5,3.75v0.1c0,2.451,3.2,3.4,6.65,4.451c4,1.199,8.301,2.75,8.301,7.4v0.1
		c0,4.9-4.051,7.75-9.201,7.75C209.607,118.535,205.508,117.086,202.607,114.736z"/>
	<path d="M228.057,105.234v-0.1c0-7.3,5.7-13.5,13.251-13.5c4.9,0,7.95,2.05,10.351,4.6l-2.551,2.7c-2.05-2.15-4.35-3.9-7.85-3.9
		c-5.251,0-9.251,4.45-9.251,10.001v0.1c0,5.6,4.101,10.051,9.501,10.051c3.3,0,5.85-1.65,7.9-3.85l2.45,2.299
		c-2.601,2.9-5.7,5-10.551,5C233.757,118.635,228.057,112.484,228.057,105.234z"/>
	<path d="M256.257,110.535v-0.1c0-5.551,4.5-8.451,11.05-8.451c3.301,0,5.601,0.45,7.901,1.101v-0.8
		c0-4.601-2.801-7.001-7.651-7.001c-3.05,0-5.45,0.75-7.85,1.85l-1.15-3.15c2.85-1.3,5.601-2.2,9.4-2.2c3.65,0,6.5,1,8.351,2.85
		c1.8,1.8,2.7,4.3,2.7,7.6v15.801h-3.8v-3.85c-1.801,2.301-4.751,4.4-9.301,4.4C261.057,118.586,256.257,115.836,256.257,110.535z
		 M275.258,108.535v-2.4c-1.9-0.551-4.4-1.1-7.551-1.1c-4.8,0-7.551,2.1-7.551,5.199v0.102c0,3.25,3.001,5.15,6.501,5.15
		C271.407,115.486,275.258,112.635,275.258,108.535z"/>
	<path d="M287.156,92.184h3.851v5.2c2.101-3.1,5.15-5.75,9.9-5.75c6.201,0,12.351,4.9,12.351,13.401v0.1
		c0,8.451-6.1,13.451-12.351,13.451c-4.8,0-7.9-2.6-9.9-5.5v12.951h-3.851V92.184z M309.308,105.186v-0.102c0-6.1-4.2-10-9.101-10
		c-4.8,0-9.35,4.05-9.35,9.951v0.1c0,6,4.55,10,9.35,10C305.208,115.135,309.308,111.436,309.308,105.186z"/>
	<path d="M320.456,82.284h4.4v4.25h-4.4V82.284z M320.706,92.184h3.851v25.851h-3.851V92.184z"/>
	<path d="M333.505,92.184h3.851v4.5c1.7-2.8,4.4-5.05,8.851-5.05c6.25,0,9.9,4.2,9.9,10.35v16.051h-3.85v-15.101
		c0-4.8-2.601-7.8-7.15-7.8c-4.45,0-7.751,3.25-7.751,8.1v14.801h-3.851V92.184z"/>
	<path d="M364.005,122.535l1.75-3c2.95,2.15,6.251,3.301,9.951,3.301c5.7,0,9.4-3.15,9.4-9.201v-3.049
		c-2.25,3-5.4,5.449-10.15,5.449c-6.2,0-12.151-4.65-12.151-12.1v-0.102c0-7.55,6.001-12.2,12.151-12.2c4.85,0,8,2.4,10.101,5.2
		v-4.65h3.85v21.351c0,4-1.199,7.051-3.3,9.15c-2.3,2.301-5.75,3.451-9.851,3.451C371.456,126.137,367.455,124.936,364.005,122.535z
		 M385.206,103.885v-0.1c0-5.301-4.6-8.751-9.5-8.751s-8.951,3.4-8.951,8.7v0.1c0,5.201,4.15,8.801,8.951,8.801
		C380.606,112.635,385.206,109.086,385.206,103.885z"/>
</g>
<g id="_x34_adbrk.tif">
	<g>
		<path fill-rule="evenodd" clip-rule="evenodd" d="M41.026,16.745c8.041,2.748,16.082,5.495,24.123,8.242
			c-2.748,11.695-8.643,19.042-17.926,18.301c-4.835,14.152-9.67,28.305-14.506,42.457c4.859,2.078,10.648,3.699,15.867,5.601
			c-4.709,18.67-13.541,32.241-29.089,30.47c-0.965-0.329-1.929-0.659-2.895-0.989c-1.225-0.737-2.233-1.58-3.529-2.283
			c-9.347-8.752-7.805-24.475-0.833-39.616c5.414,1.85,10.829,3.7,16.243,5.549c4.872-14.259,9.744-28.52,14.616-42.779
			C36.412,36.229,36.334,27.435,41.026,16.745z M41.719,24.705c-1.812,6.391-1.041,12.969,4.724,15.083
			c6.233,2.286,11.233-3.173,13.453-9.412c-5.951-2.033-11.901-4.066-17.852-6.099C41.848,24.24,41.784,24.471,41.719,24.705z
			 M28.123,89.204c-1.559,5.212-4.615,11.179-3.878,15.557c2.954-3.021,4.779-9.663,6.291-14.733
			C29.731,89.753,28.928,89.479,28.123,89.204z"/>
	</g>
</g>
</svg>